<?xml version="1.0" encoding="UTF-8"?>
<svg id="Layer_1" data-name="Layer 1" xmlns="http://www.w3.org/2000/svg" xmlns:xlink="http://www.w3.org/1999/xlink" viewBox="0 0 200 200">
  <defs>
    <style>
      .cls-1 {
        fill: url(#radial-gradient);
      }

      .cls-1, .cls-2, .cls-3, .cls-4 {
        stroke-width: 0px;
      }

      .cls-2 {
        opacity: .5;
      }

      .cls-2, .cls-3 {
        fill: #fff;
      }

      .cls-4 {
        fill: #e6e7e8;
      }
    </style>
    <radialGradient id="radial-gradient" cx="90" cy="120" fx="90" fy="120" r="130" gradientUnits="userSpaceOnUse">
      <stop offset="0" stop-color="#4babde"/>
      <stop offset="1" stop-color="#1d7cbf"/>
    </radialGradient>
  </defs>
  <rect class="cls-1" y="0" width="200" height="200" rx="10.13" ry="10.13"/>
  <g>
    <path class="cls-2" d="M58.01,49.61l23.63.19v13.89h.38c1.36-4.97,3.87-8.79,7.55-11.46,3.67-2.68,8.25-4.01,13.73-4.01,1.27,0,2.53.07,3.76.22,1.23.15,2.31.35,3.25.61v18.66c-1.23-.3-2.57-.53-4.01-.7-1.44-.17-2.93-.25-4.46-.25-4.08,0-7.62.73-10.64,2.2-3.02,1.47-5.36,3.69-7.04,6.66-1.68,2.97-2.52,6.71-2.52,11.21v31.28h-23.63V49.61Z"/>
    <path class="cls-2" d="M113.58,133.07c-2.36-2.25-3.54-5.01-3.54-8.28s1.18-6.09,3.54-8.34c2.36-2.25,5.32-3.38,8.89-3.38s6.57,1.13,8.89,3.38c2.31,2.25,3.47,5.03,3.47,8.34s-1.17,6.03-3.5,8.28c-2.34,2.25-5.29,3.38-8.85,3.38s-6.53-1.12-8.89-3.38Z"/>
    <path class="cls-4" d="M67.46,59.98l23.63.19v13.89h.38c1.36-4.97,3.87-8.79,7.55-11.46,3.67-2.68,8.25-4.01,13.73-4.01,1.27,0,2.53.07,3.76.22,1.23.15,2.31.35,3.25.61v18.66c-1.23-.3-2.57-.53-4.01-.7-1.44-.17-2.93-.25-4.46-.25-4.08,0-7.62.73-10.64,2.2-3.02,1.47-5.36,3.69-7.04,6.66-1.68,2.97-2.52,6.71-2.52,11.21v31.28h-23.63V59.98Z"/>
    <path class="cls-4" d="M123.03,143.44c-2.36-2.25-3.54-5.01-3.54-8.28s1.18-6.09,3.54-8.34c2.36-2.25,5.32-3.38,8.89-3.38s6.57,1.13,8.89,3.38c2.31,2.25,3.47,5.03,3.47,8.34s-1.17,6.03-3.5,8.28c-2.34,2.25-5.29,3.38-8.85,3.38s-6.53-1.12-8.89-3.38Z"/>
    <path class="cls-3" d="M76.91,70.35l23.63.19v13.89h.38c1.36-4.97,3.87-8.79,7.55-11.46,3.67-2.68,8.25-4.01,13.73-4.01,1.27,0,2.53.07,3.76.22,1.23.15,2.31.35,3.25.61v18.66c-1.23-.3-2.57-.53-4.01-.7-1.44-.17-2.93-.25-4.46-.25-4.08,0-7.62.73-10.64,2.2-3.02,1.47-5.36,3.69-7.04,6.66-1.68,2.97-2.52,6.71-2.52,11.21v31.28h-23.63v-68.47Z"/>
    <path class="cls-3" d="M132.48,153.85c-2.36-2.25-3.54-5.01-3.54-8.28s1.18-6.09,3.54-8.34c2.36-2.25,5.32-3.38,8.89-3.38s6.57,1.13,8.89,3.38c2.31,2.25,3.47,5.03,3.47,8.34s-1.17,6.03-3.5,8.28c-2.34,2.25-5.29,3.38-8.85,3.38s-6.53-1.12-8.89-3.38Z"/>
  </g>
</svg>
