<?xml version="1.0" encoding="UTF-8"?>
<svg id="Layer_1" data-name="Layer 1" xmlns="http://www.w3.org/2000/svg" viewBox="0 0 396.31 134.02">
  <defs>
    <style>
      .cls-1 {
        fill: #fff;
        stroke-width: 0px;
      }
    </style>
  </defs>
  <path class="cls-1" d="M36.05,55.87l13.04.11v7.66h.21c.75-2.74,2.14-4.85,4.17-6.33,2.03-1.48,4.55-2.21,7.58-2.21.7,0,1.39.04,2.07.12.68.08,1.28.19,1.79.33v10.3c-.68-.16-1.42-.29-2.21-.39-.8-.09-1.62-.14-2.46-.14-2.25,0-4.21.4-5.87,1.21-1.66.81-2.96,2.03-3.88,3.67-.93,1.64-1.39,3.7-1.39,6.19v17.26h-13.04v-37.79Z"/>
  <path class="cls-1" d="M83.16,92.23c-4.81-1.53-8.52-3.77-11.12-6.7-2.6-2.93-3.9-6.48-3.9-10.65v-.04c0-4.1,1.32-7.64,3.97-10.62,2.65-2.98,6.33-5.27,11.05-6.89,4.72-1.62,10.22-2.4,16.51-2.36,6.44,0,11.99.83,16.67,2.5,4.67,1.66,8.27,4,10.79,7.01,2.52,3.01,3.78,6.54,3.78,10.6v2.46l-53.9-.04v-6.71h42.81l-5.01,4.92v-2.32c0-2.09-.59-3.88-1.76-5.38-1.18-1.5-2.86-2.65-5.06-3.45-2.2-.8-4.84-1.2-7.94-1.2s-5.97.39-8.24,1.18c-2.27.79-4.02,1.95-5.22,3.48-1.21,1.54-1.81,3.43-1.81,5.68v1.97c0,2.51.69,4.54,2.07,6.08,1.38,1.55,3.27,2.67,5.69,3.38s5.22,1.05,8.4,1.05c2.07,0,3.99-.17,5.73-.51,1.75-.34,3.27-.83,4.55-1.48,1.28-.64,2.25-1.4,2.9-2.27l.19-.21h15.92l-.09.39c-.74,1.9-1.97,3.62-3.69,5.17s-3.87,2.87-6.45,3.96c-2.58,1.09-5.52,1.91-8.82,2.46-3.3.55-6.89.83-10.79.83-6.66,0-12.39-.77-17.2-2.3Z"/>
  <path class="cls-1" d="M145.4,92.87c-2.47-.93-4.39-2.26-5.77-4.01-1.37-1.75-2.06-3.88-2.06-6.42v-.04c0-2.2.58-4.14,1.74-5.8,1.16-1.66,2.99-2.96,5.5-3.9,2.51-.94,5.79-1.45,9.84-1.55l21.52-.46v6.57l-19.41.46c-2.23.05-3.86.42-4.9,1.11-1.04.69-1.56,1.63-1.56,2.83v.04c0,1.52.72,2.66,2.16,3.41,1.44.75,3.33,1.12,5.68,1.12s4.34-.32,6.06-.95,3.06-1.52,4.01-2.67c.95-1.15,1.42-2.51,1.42-4.08v-8.65c0-1.99-.79-3.54-2.36-4.64-1.57-1.1-3.81-1.65-6.71-1.65-2.53,0-4.54.4-6.01,1.2-1.48.8-2.4,1.86-2.78,3.2l-.11.28h-12.23l.07-.42c.44-2.53,1.54-4.76,3.29-6.7,1.75-1.93,4.12-3.45,7.14-4.55,3.01-1.1,6.65-1.65,10.92-1.65,4.52,0,8.41.59,11.67,1.78,3.26,1.18,5.76,2.88,7.51,5.1,1.75,2.21,2.62,4.87,2.62,7.96v23.87h-13.01v-6.19h-.25c-.89,1.41-2.07,2.62-3.55,3.64s-3.21,1.8-5.19,2.34c-1.98.54-4.17.81-6.56.81-3.33,0-6.23-.46-8.7-1.39Z"/>
  <path class="cls-1" d="M196.85,92.62c-2.53-1.3-4.47-3.2-5.82-5.71-1.35-2.51-2.02-5.53-2.02-9.07v-21.94h13.04v19.27c0,3.14.78,5.56,2.34,7.26,1.56,1.7,3.85,2.55,6.87,2.55,1.55,0,2.95-.24,4.22-.72,1.27-.48,2.36-1.17,3.29-2.07.93-.9,1.64-1.99,2.14-3.25.5-1.27.76-2.72.76-4.36v-18.67h13.01v37.76h-13.01v-7.38h-.25c-.87,1.69-2.04,3.16-3.52,4.41-1.48,1.25-3.22,2.21-5.24,2.88-2.02.67-4.28,1-6.79,1-3.49,0-6.5-.65-9.04-1.95Z"/>
  <path class="cls-1" d="M249.39,92.09c-2.99-1.63-5.31-3.93-6.98-6.91-1.66-2.98-2.5-6.45-2.5-10.41v-.07c0-4.01.83-7.49,2.48-10.44,1.65-2.95,3.98-5.24,6.98-6.87,3-1.63,6.52-2.44,10.55-2.44,2.58,0,4.91.33,7,1s3.89,1.59,5.41,2.76c1.52,1.17,2.77,2.54,3.73,4.11h.25v-19.9h13.01v50.73h-13.01v-6.89h-.25c-.94,1.52-2.17,2.88-3.69,4.06-1.52,1.18-3.33,2.1-5.41,2.74s-4.43.97-7.03.97c-4.03,0-7.54-.81-10.53-2.44ZM270.78,83.99c1.76-.84,3.11-2.05,4.04-3.62.94-1.57,1.41-3.43,1.41-5.59v-.07c0-2.13-.47-3.98-1.42-5.55-.95-1.57-2.3-2.78-4.04-3.62s-3.78-1.27-6.1-1.27-4.44.42-6.15,1.25c-1.71.83-3.03,2.03-3.96,3.6-.93,1.57-1.39,3.43-1.39,5.59v.07c0,2.18.47,4.06,1.41,5.62.94,1.57,2.26,2.77,3.96,3.6,1.7.83,3.74,1.25,6.13,1.25s4.36-.42,6.12-1.27Z"/>
  <path class="cls-1" d="M297.68,49.84c-1.29-1.16-1.93-2.61-1.93-4.34s.64-3.12,1.93-4.29c1.29-1.17,2.96-1.76,5.03-1.76s3.73.59,5.01,1.76c1.28,1.17,1.92,2.6,1.92,4.29s-.64,3.18-1.92,4.34-2.95,1.74-5.01,1.74-3.74-.58-5.03-1.74ZM296.16,55.87h13.04v37.79h-13.04v-37.79Z"/>
  <path class="cls-1" d="M324.98,91.11c-2.68-2.07-4.03-5.44-4.03-10.11v-16.28h-7.45v-8.86h7.45v-9.14h13.04v9.14h11.43v8.86h-11.39v14.55c0,2.23.56,3.79,1.69,4.69,1.12.9,3.01,1.35,5.66,1.35.75,0,1.48-.03,2.18-.09.7-.06,1.32-.12,1.86-.19v8.65c-1.05.14-2.24.26-3.55.37s-2.67.16-4.08.16c-5.86,0-10.13-1.04-12.81-3.11Z"/>
  <path class="cls-1" d="M348.54,92.36c-1.3-1.24-1.95-2.76-1.95-4.57s.65-3.36,1.95-4.61c1.3-1.24,2.94-1.86,4.9-1.86s3.63.62,4.9,1.86c1.28,1.24,1.92,2.78,1.92,4.61s-.64,3.33-1.93,4.57c-1.29,1.24-2.92,1.86-4.89,1.86s-3.6-.62-4.9-1.86Z"/>
</svg>